<svg width="26" height="26" viewBox="0 0 26 26" fill="none" xmlns="http://www.w3.org/2000/svg">
<path d="M18.254 0H7.74465C5.69116 0.00241321 3.72248 0.819319 2.27056 2.27148C0.818643 3.72365 0.00206794 5.69246 0 7.74596L0 18.2553C0.00241321 20.3088 0.819319 22.2775 2.27148 23.7294C3.72365 25.1814 5.69246 25.9979 7.74596 26H18.2553C20.3088 25.9976 22.2775 25.1807 23.7294 23.7285C25.1814 22.2764 25.9979 20.3075 26 18.254V7.74465C25.9976 5.69116 25.1807 3.72248 23.7285 2.27056C22.2764 0.818643 20.3075 0.00206794 18.254 0ZM23.385 18.254C23.385 18.9279 23.2523 19.5951 22.9945 20.2176C22.7366 20.8401 22.3587 21.4057 21.8822 21.8822C21.4057 22.3587 20.8401 22.7366 20.2176 22.9945C19.5951 23.2523 18.9279 23.385 18.254 23.385H7.74465C6.38406 23.3847 5.07931 22.8439 4.11734 21.8817C3.15538 20.9195 2.61498 19.6146 2.61498 18.254V7.74465C2.61532 6.38406 3.15606 5.07931 4.11827 4.11734C5.08047 3.15538 6.38536 2.61498 7.74596 2.61498H18.2553C19.6159 2.61532 20.9207 3.15606 21.8827 4.11827C22.8446 5.08047 23.385 6.38536 23.385 7.74596V18.254Z" fill="white"/>
<path d="M12.9983 7C11.408 7.00246 9.88355 7.63537 8.75915 8.75998C7.63476 9.88459 7.00215 11.4091 7 12.9994C7.00184 14.5901 7.63448 16.1151 8.75916 17.24C9.88383 18.3649 11.4087 18.9978 12.9994 19C14.5903 18.9982 16.1155 18.3654 17.2404 17.2404C18.3654 16.1155 18.9982 14.5903 19 12.9994C18.9975 11.4087 18.3643 9.88396 17.2392 8.7595C16.1141 7.63504 14.5889 7.0027 12.9983 7.00116V7ZM12.9983 16.6667C12.0259 16.6667 11.0935 16.2804 10.4059 15.5929C9.71839 14.9054 9.33214 13.9729 9.33214 13.0006C9.33214 12.0283 9.71839 11.0958 10.4059 10.4082C11.0935 9.72071 12.0259 9.33446 12.9983 9.33446C13.9706 9.33446 14.9031 9.72071 15.5906 10.4082C16.2781 11.0958 16.6644 12.0283 16.6644 13.0006C16.6644 13.9729 16.2781 14.9054 15.5906 15.5929C14.9031 16.2804 13.9706 16.6667 12.9983 16.6667Z" fill="white"/>
<path d="M19.7369 7.93815C20.6266 7.93815 21.3478 7.21691 21.3478 6.32723C21.3478 5.43754 20.6266 4.71631 19.7369 4.71631C18.8472 4.71631 18.126 5.43754 18.126 6.32723C18.126 7.21691 18.8472 7.93815 19.7369 7.93815Z" fill="white"/>
</svg>
